<svg xmlns="http://www.w3.org/2000/svg" height="1024" preserveAspectRatio="none" style="display: block;" version="1.1" viewBox="0 0 2048 2048" width="1024">
<path d="M 0 0 L 2048 0 L 2048 2048 L 0 2048 L 0 0 z" fill="rgb(250,246,234)" transform="translate(0,0)"></path>
<path d="M 623.056 36.4811 L 1174.69 36.3564 L 1379.93 37.1129 C 1441.97 37.3188 1503.28 37.6317 1565.19 42.3256 C 1680.57 51.0735 1794.82 74.2412 1881.86 156.165 C 2007.81 274.713 2006.87 454.599 2012.12 614.846 C 2013.32 651.648 2013.02 688.324 2013.24 725.102 L 2013.62 919.633 L 2012.37 1269.78 C 2011.25 1358.67 2013.26 1447.78 2008.53 1536.27 C 2001.92 1659.7 1983.3 1785.59 1894.97 1878.97 C 1777.75 2002.9 1585.92 2006.18 1427.38 2010.78 C 1230.92 2013.16 1034.43 2013.76 837.952 2012.58 C 679.146 2011.85 538.007 2016.61 380.407 1989.76 C 70.8162 1937 43.9146 1709.51 38.4732 1441.72 C 37.3561 1344.28 36.7445 1246.83 36.6383 1149.38 L 36.7255 825.688 C 36.752 742.775 37.4277 659.863 38.7524 576.961 C 40.4595 510.095 43.3202 437.302 56.5285 371.664 C 71.2152 298.679 103.308 221.673 155.225 167.305 C 166.723 155.264 185.475 137.647 198.718 128.348 C 314.792 46.8465 486.524 39.1774 623.056 36.4811 z" fill="rgb(226,74,69)" transform="translate(0,0)"></path>
<path d="M 755.523 193.412 C 764.926 192.167 787.095 192.52 796.853 192.699 C 861.423 193.35 925.279 206.283 985.014 230.806 C 1120.2 284.457 1228.37 389.866 1285.49 523.621 C 1306.84 572.926 1319.97 625.392 1324.37 678.94 C 1337.1 831.982 1277.2 1005.87 1220.71 1145.92 C 1259.25 1146.87 1298.16 1149.29 1336.86 1151.03 C 1368.45 1153.5 1402.7 1151.52 1433.39 1159.44 C 1446.86 1162.91 1466.93 1175.91 1477.12 1184.9 C 1501.29 1206.22 1524.88 1228.9 1548.26 1251.02 L 1648.84 1344.36 L 1720.78 1409.95 C 1737.43 1424.87 1758.47 1441.44 1771.9 1458.4 C 1801.12 1495.29 1793.04 1540.55 1762.25 1573.43 C 1746.89 1589.84 1731.21 1607.03 1716.53 1623.45 C 1675.06 1670.4 1633.14 1716.94 1590.77 1763.06 L 1544.35 1814.92 C 1524.28 1837.44 1509.43 1858.67 1476.78 1861.51 C 1436.53 1865.02 1410.69 1829.09 1383.39 1803.47 L 1270.73 1696.61 L 1199.54 1628.73 C 1186.47 1616.47 1166.97 1600.09 1156.05 1587 C 1145.56 1574.28 1137.77 1559.56 1133.13 1543.74 C 1126.11 1520.58 1126.84 1494.2 1125.33 1469.9 C 1122.76 1428.65 1122.05 1387.39 1118.85 1346.12 C 1111.39 1359.33 1103.81 1372.47 1096.13 1385.55 C 1081.76 1408.6 1068.37 1434.15 1053.68 1457.91 C 1011.46 1526.49 967.527 1594.01 921.912 1660.39 C 901.458 1690.58 880.292 1720.29 858.432 1749.48 C 847.317 1764.49 828.028 1788.42 819.714 1803.54 C 837.532 1803.96 931.976 1810.11 937.916 1824.44 C 931.321 1846.56 762.278 1849.07 737.338 1848.96 C 708.679 1848.83 533.107 1844.38 523.299 1824.9 L 524.481 1822.58 C 551.723 1803.15 712.34 1802.61 752.893 1802.84 C 740.067 1782.56 723.314 1763.35 709.566 1743.74 C 686.991 1711.53 663.721 1678.6 641.965 1645.9 C 476.267 1396.91 275.854 1076.26 252.368 773.642 C 241.429 630.704 287.941 489.305 381.599 380.773 C 459.385 290.161 565.977 226.019 683.197 202.383 C 707.225 197.538 731.127 195.248 755.523 193.412 z" fill="rgb(33,27,26)" transform="translate(0,0)"></path>
<path d="M 784.205 230.473 C 848.713 229.767 921.032 243.556 980.416 269.056 C 1105.47 321.992 1204.37 422.428 1255.38 548.278 C 1306.15 676.024 1292.72 800.313 1257.28 929.745 C 1241.46 987.472 1221.65 1044.03 1198 1099.01 C 1173.6 1071.27 1137.44 1058.96 1103.21 1048.14 C 1105.16 1041.39 1110.66 1028.46 1113.37 1021.61 C 1120.47 1003.99 1127.31 986.265 1133.89 968.442 C 1174.63 855.315 1207.22 736.513 1173.38 618.966 C 1140.75 505.657 1057.57 411.611 950.582 364.577 C 936.923 358.572 928.849 371.518 936.734 378.044 C 942.424 382.752 959.961 389.7 967.694 393.791 C 979.407 399.927 990.819 406.623 1001.89 413.854 C 1057.32 450.573 1101.87 501.516 1130.86 561.352 C 1197.6 697.858 1162.46 836.744 1112.3 971.462 C 1103.23 995.813 1091.69 1021.05 1083.42 1045.08 C 1077.05 1044.39 1070.66 1043.92 1064.26 1043.67 C 1033.53 1042.71 1002.56 1047.91 979.424 1069.88 C 964.206 1084.11 955.415 1103.9 955.063 1124.74 C 954.546 1157.19 975.823 1188.65 997.549 1210.98 C 955.281 1280.93 913.302 1347.63 863.695 1412.74 C 849.993 1430.58 837.562 1449.64 821.835 1465.8 C 803.461 1484.67 771.824 1487.32 753.169 1467.41 C 729.778 1442.45 709.842 1412.89 690.576 1384.59 C 640.845 1312.24 594.846 1237.4 552.758 1160.35 C 526.144 1110.48 501.52 1059.58 478.943 1007.75 C 460.357 964.875 445.001 920.667 433.002 875.499 C 406.506 777.517 395.871 690.017 434.496 593.223 C 475.043 491.611 543.507 421.404 643.792 378.017 C 674.023 365.929 701.435 358.942 733.471 353.466 C 744.522 351.576 772.975 351.088 779.542 346.663 C 782.957 341.813 782.695 337.31 778.584 332.885 C 768.613 329.006 729.938 335.109 717.514 337.307 C 612.565 355.435 519.418 415.259 459.28 503.159 C 446.509 521.608 435.483 542.869 426.284 563.31 C 388.2 647.933 382.468 724.508 399.131 815.142 C 421.289 935.674 467.843 1039.63 524.255 1147.4 C 568.989 1232.57 618.785 1314.97 673.373 1394.18 C 693.143 1422.79 714.205 1452.85 736.795 1479.15 C 751.731 1496.55 778.024 1503.16 799.951 1498.93 C 831.637 1492.83 846.58 1466.31 865.07 1442.98 C 901.403 1396.59 935.355 1348.37 966.794 1298.53 C 982.474 1274.21 996.463 1250.38 1012.77 1226.27 C 1026.45 1235.7 1039.29 1246.64 1053.57 1256.05 C 1073.14 1268.93 1090.16 1276.89 1111.22 1286.75 C 1077.15 1350.05 1040.74 1412.06 1002.09 1472.67 C 934.867 1579.92 863.062 1684.23 786.874 1785.3 C 715.281 1696.96 652.001 1595.9 590.826 1500.03 C 504.288 1364.41 425.047 1223.41 365.437 1073.66 C 323.871 969.237 291.062 856.598 287.991 742.794 C 281.609 506.199 456.944 285.044 689.903 239.693 C 721.63 233.517 752.328 231.34 784.205 230.473 z" fill="rgb(250,246,234)" transform="translate(0,0)"></path>
<path d="M 780.928 438.993 C 921.847 435.29 1039.03 546.65 1042.5 687.575 C 1045.97 828.5 934.421 945.497 793.491 948.74 C 652.885 951.976 536.216 840.739 532.751 700.138 C 529.286 559.537 640.333 442.688 780.928 438.993 z" fill="rgb(33,27,26)" transform="translate(0,0)"></path>
<path d="M 769.176 476.982 C 888.909 466.789 994.2 555.673 1004.24 675.42 C 1014.28 795.166 925.265 900.344 805.506 910.234 C 685.961 920.105 581.013 831.282 570.99 711.75 C 560.966 592.218 649.656 487.157 769.176 476.982 z" fill="rgb(226,74,69)" transform="translate(0,0)"></path>
<path d="M 1152.25 1174.91 C 1188.45 1173.17 1227.7 1178.21 1264.08 1179.29 C 1300.11 1178.68 1341.2 1185.7 1376.1 1185.87 C 1442.99 1186.19 1454.23 1208.12 1500.57 1250.94 L 1605.93 1348.93 L 1707.48 1443.02 C 1731.73 1465.79 1778.45 1495.08 1745.84 1532.34 C 1727.12 1553.73 1707 1573.98 1687.41 1594.62 L 1591.08 1696.73 L 1526.52 1765.67 C 1504.84 1788.65 1483.69 1822.27 1450.3 1792.1 L 1320.2 1667.4 C 1280.11 1629.69 1239.49 1592.49 1200.28 1554.06 C 1172.93 1528.24 1165.76 1501.94 1163.13 1465.67 C 1157.54 1388.64 1149.88 1311.34 1150.22 1234 C 1164.66 1241.55 1173.32 1246.52 1186.57 1256.4 C 1186.33 1258.26 1185.45 1265.04 1184.9 1266.18 C 1182.62 1270.85 1178.26 1270.85 1178.3 1277.59 C 1178.35 1286.77 1178.11 1312.48 1183.26 1318.87 C 1190.18 1321.58 1191.38 1315.52 1197.33 1314.69 C 1200.33 1316.23 1208.43 1324.18 1210.94 1326.16 C 1238.61 1347.97 1275.62 1340.07 1295.88 1312.16 C 1305.91 1298.26 1309.8 1280.86 1306.65 1264.02 C 1302.91 1243.77 1290 1229.41 1273.61 1218.04 L 1277.8 1218.03 C 1284.3 1218.02 1290.61 1218.58 1293.57 1211.72 C 1291.93 1205.21 1283.73 1203.18 1277.81 1202.91 C 1267.02 1202.41 1255.27 1201.7 1245.25 1206.38 C 1241.85 1207.96 1238.83 1210.69 1235.33 1212 C 1220.53 1215.93 1218.59 1215.3 1207.05 1225.26 C 1198.11 1220.1 1155.58 1194.95 1150.44 1189.14 C 1148.85 1183.71 1150.06 1180 1152.25 1174.91 z" fill="rgb(250,246,234)" transform="translate(0,0)"></path>
<path d="M 1567.94 1436.21 C 1638.88 1431.78 1635.7 1559.1 1563.23 1575.78 C 1552.55 1577.69 1541.54 1575.5 1532.4 1569.67 C 1487.58 1541.19 1519.46 1446.39 1567.94 1436.21 z" fill="rgb(33,27,26)" transform="translate(0,0)"></path>
<path d="M 1586.77 1482.85 C 1595.24 1494.54 1578.66 1533.69 1568.38 1542.62 C 1560.31 1549.63 1557.35 1551.07 1547 1551.18 C 1541.33 1540.95 1547.58 1530.96 1554.1 1522.56 C 1564.38 1509.34 1574.35 1494.12 1586.77 1482.85 z" fill="rgb(250,246,234)" transform="translate(0,0)"></path>
<path d="M 1361.88 1439.23 C 1382.57 1438.17 1380.42 1448.52 1387.16 1450.55 C 1425.55 1462.13 1421.08 1496.63 1405.13 1525.1 C 1394.4 1544.24 1383.32 1568.52 1360.81 1575.78 C 1348.51 1578.29 1336.56 1576.48 1326.06 1569.68 C 1286.78 1544.23 1310.34 1493.2 1329.4 1463.13 C 1338.03 1449.51 1346.62 1442.31 1361.88 1439.23 z" fill="rgb(33,27,26)" transform="translate(0,0)"></path>
<path d="M 1379.05 1474.58 C 1388.8 1474.68 1384.88 1488 1382.81 1493.63 C 1374.82 1515.38 1361.76 1545.08 1340.22 1556.15 C 1338.07 1555.77 1338.08 1555.59 1336.03 1554.69 C 1328.76 1542.98 1367.92 1484.13 1379.05 1474.58 z" fill="rgb(250,246,234)" transform="translate(0,0)"></path>
<path d="M 1432.97 1355.2 L 1434.71 1355.25 C 1437.64 1358.19 1506.56 1627.34 1513.21 1655.16 C 1506.09 1657.6 1498.43 1659.85 1491.2 1662.09 L 1489.55 1662.6 C 1486.84 1660.51 1467.47 1578.35 1464.78 1567.79 L 1411.49 1360.72 C 1418.46 1358.76 1425.92 1356.99 1432.97 1355.2 z" fill="rgb(33,27,26)" transform="translate(0,0)"></path>
<path d="M 1669.36 1438.58 C 1676.32 1439.88 1698.11 1460.71 1704.28 1466.33 C 1706.98 1468.79 1711.9 1475.44 1710.83 1479.45 C 1709.81 1483.25 1708.72 1482.93 1705.35 1484.8 C 1703.93 1484.05 1702.55 1483.21 1701.23 1482.29 C 1694.77 1477.86 1664.53 1452.62 1663.21 1445.29 C 1664.29 1442.14 1666.69 1440.76 1669.36 1438.58 z" fill="rgb(33,27,26)" transform="translate(0,0)"></path>
<path d="M 1419.86 1213.7 C 1428.8 1213.84 1446.7 1231.27 1454.88 1236.38 C 1459.23 1239.1 1465.23 1244.15 1465.88 1249.38 C 1464.82 1253.03 1462.69 1254.28 1459.77 1256.8 C 1453.2 1255.42 1423.73 1229.36 1416.83 1225.07 C 1415.42 1224.2 1415.28 1221.55 1415.05 1219.98 C 1416.06 1216.48 1417.09 1216.03 1419.86 1213.7 z" fill="rgb(33,27,26)" transform="translate(0,0)"></path>
<path d="M 1328.56 1205.08 C 1342.81 1204.85 1359.3 1206.03 1373.58 1207.23 C 1379.07 1207.69 1382.61 1209.34 1384.05 1214.74 C 1383.29 1218.49 1382.9 1218.5 1380.4 1221.31 C 1371.3 1221.15 1361.54 1221.08 1352.51 1220.43 C 1344.3 1219.83 1326.72 1221.43 1324.38 1211.8 C 1325.21 1208.18 1326.02 1207.73 1328.56 1205.08 z" fill="rgb(33,27,26)" transform="translate(0,0)"></path>
<path d="M 1359.27 1656.39 C 1360.23 1656.73 1363.31 1657.89 1364 1658.54 C 1371.64 1665.72 1399.9 1687 1401.66 1695.29 C 1400.56 1699.47 1400.07 1699.8 1397.37 1703.34 C 1395.6 1703.08 1392.29 1702.69 1390.14 1700.67 C 1378.65 1689.88 1365.36 1679.14 1354.8 1667.58 C 1354.61 1666.4 1354.42 1665.23 1354.23 1664.06 C 1355.37 1660.04 1356.27 1659.55 1359.27 1656.39 z" fill="rgb(33,27,26)" transform="translate(0,0)"></path>
<path d="M 1599.35 1378.71 C 1611.25 1378.07 1636.03 1404.16 1643.65 1413.89 C 1645.83 1416.67 1644.36 1420.16 1643.44 1423.09 C 1640.86 1423.23 1635.83 1423.72 1633.89 1421.81 C 1622.5 1410.62 1609.42 1400.89 1598.65 1389.18 C 1596.51 1386.84 1598.55 1381.32 1599.35 1378.71 z" fill="rgb(33,27,26)" transform="translate(0,0)"></path>
<path d="M 1190.2 1421.63 C 1191.1 1421.9 1194.71 1422.9 1195.27 1423.81 C 1202.01 1434.73 1200.92 1462.18 1201.6 1475.44 C 1201.77 1478.72 1198.59 1481.2 1196.83 1482.77 C 1195.57 1482.52 1192.6 1482.24 1192.07 1481.37 C 1184.98 1469.53 1186.52 1441.51 1185.01 1426.99 C 1184.77 1424.65 1188.38 1422.92 1190.2 1421.63 z" fill="rgb(33,27,26)" transform="translate(0,0)"></path>
<path d="M 1418.41 1716.87 C 1422.4 1716.63 1425.6 1716.55 1428.59 1719.47 C 1434.54 1725.28 1460.13 1743.96 1460.98 1750.99 C 1460.27 1754.51 1459.54 1755.04 1457.31 1757.78 C 1455.26 1757.84 1452.46 1757.88 1450.88 1756.6 C 1442.92 1750.13 1417.31 1732.13 1415.13 1723.02 C 1415.87 1718.89 1415.41 1720.35 1418.41 1716.87 z" fill="rgb(33,27,26)" transform="translate(0,0)"></path>
<path d="M 1298.94 1599.87 C 1307.17 1602.53 1336.99 1628.66 1337.19 1638.39 C 1335.91 1642.22 1335.82 1641.99 1332.5 1644.51 C 1325.32 1642.29 1293.18 1612.81 1292.97 1605.5 C 1294.45 1602.37 1296.03 1601.76 1298.94 1599.87 z" fill="rgb(33,27,26)" transform="translate(0,0)"></path>
<path d="M 1546.36 1322.52 C 1550.09 1324.14 1556.69 1329.59 1559.4 1332.68 C 1565.6 1339.72 1593.24 1357.16 1574.34 1365.01 C 1567.78 1362.86 1548.28 1342.66 1542.29 1336.75 C 1539.23 1333.73 1539.32 1332.44 1539.62 1328.9 C 1541.86 1325.2 1542.62 1325 1546.36 1322.52 z" fill="rgb(33,27,26)" transform="translate(0,0)"></path>
<path d="M 1620.35 1613.88 C 1623.75 1613.77 1624.89 1613.39 1627.68 1615.3 C 1628.49 1616.79 1629.15 1617.32 1628.95 1618.87 C 1627.85 1627.61 1602.09 1651.92 1595.91 1656.72 C 1592.4 1656.69 1591.32 1656.46 1588.66 1654.38 C 1587.95 1652.7 1587.32 1652.08 1587.66 1650.43 C 1589.47 1641.72 1613.95 1618.76 1620.35 1613.88 z" fill="rgb(33,27,26)" transform="translate(0,0)"></path>
<path d="M 1183.46 1344.77 C 1187.51 1345.14 1187.55 1345.16 1191.38 1346.55 C 1192.81 1348.39 1193.68 1349.64 1193.6 1352.13 C 1193.27 1362.98 1198.82 1391.67 1192.75 1399.66 C 1190.78 1399.53 1186.15 1399.4 1185.24 1398.11 C 1179.26 1389.61 1178.74 1351.59 1183.46 1344.77 z" fill="rgb(33,27,26)" transform="translate(0,0)"></path>
<path d="M 1487.21 1268.37 C 1493.06 1269.31 1521.83 1295.65 1522.39 1301.33 C 1521.21 1305.23 1519.36 1306.28 1516.21 1309.15 C 1510.34 1308.57 1481.68 1282.99 1481.43 1275.75 C 1483 1271.89 1484.06 1271.33 1487.21 1268.37 z" fill="rgb(33,27,26)" transform="translate(0,0)"></path>
<path d="M 1566.48 1672.72 C 1570.08 1674.06 1570.29 1673.89 1573.03 1676.75 C 1573.57 1678.63 1574.1 1679.2 1573.56 1680.94 C 1571.22 1688.49 1547.39 1709.84 1541.64 1713.63 C 1538.04 1713.19 1537.71 1713.38 1534.49 1711.55 C 1533.38 1709.72 1532.35 1708.36 1533.38 1705.87 C 1536.82 1697.5 1560.12 1676.91 1566.48 1672.72 z" fill="rgb(33,27,26)" transform="translate(0,0)"></path>
<path d="M 1674.52 1556.7 C 1679.22 1557.49 1680.48 1557.59 1682.46 1562.12 C 1681.98 1571.57 1659.54 1591.26 1651.97 1598.12 L 1646.31 1596.92 C 1636.16 1588.17 1667.33 1562.6 1674.52 1556.7 z" fill="rgb(33,27,26)" transform="translate(0,0)"></path>
<path d="M 1725.79 1499.98 C 1729.54 1500.63 1729.83 1500.42 1732.96 1502.74 C 1734.21 1505.56 1734.69 1505.76 1733.81 1509.21 C 1732.06 1516.1 1709.34 1538.7 1704.46 1541.53 C 1699.58 1541.04 1697.91 1537.03 1695.53 1533.23 C 1699.54 1526.79 1720.13 1504.12 1725.79 1499.98 z" fill="rgb(33,27,26)" transform="translate(0,0)"></path>
<path d="M 1511.92 1730.84 C 1515.33 1730.86 1515.1 1730.91 1518.17 1732.49 C 1519.27 1734.18 1520.08 1734.7 1520.02 1736.51 C 1519.76 1744.71 1497.6 1764.43 1491.39 1769.88 C 1487.36 1768.79 1487.42 1768.94 1484.07 1766.59 C 1479.34 1756.29 1504.04 1737.14 1511.92 1730.84 z" fill="rgb(33,27,26)" transform="translate(0,0)"></path>
<path d="M 1244.91 1549.64 C 1247.4 1549.73 1249.88 1549.89 1251.77 1551.73 C 1257.75 1557.53 1277.61 1573.27 1278.65 1580.34 C 1277.93 1583.98 1276.56 1585.02 1274.13 1587.82 C 1266.12 1585.5 1241.62 1564.59 1239.76 1556.67 C 1240.37 1553.1 1242.17 1552.1 1244.91 1549.64 z" fill="rgb(33,27,26)" transform="translate(0,0)"></path>
<path d="M 1196.77 1502.41 C 1198.35 1502.67 1199.72 1503.06 1201.27 1503.45 C 1207.3 1509.66 1223.16 1527.08 1224.56 1534.97 C 1224.09 1538.44 1223.13 1538.99 1220.71 1541.52 C 1210.54 1537.64 1196.65 1520 1193.92 1509.38 C 1193.1 1506.21 1195.06 1504.68 1196.77 1502.41 z" fill="rgb(33,27,26)" transform="translate(0,0)"></path>
<path d="M 1086.93 1084.54 C 1097.03 1085.82 1121.46 1092.69 1130.82 1096.77 C 1155.33 1107.42 1167.69 1116.76 1178.08 1141.13 C 1169.42 1141.19 1160.59 1141 1151.95 1141.36 C 1099.04 1143.58 1112.33 1198.21 1113.06 1234.38 L 1113.42 1247.53 C 1082 1231.72 1058.04 1217.51 1032.14 1193.28 C 1037.72 1179.11 1049.17 1160.73 1056.29 1146.73 C 1066.79 1126.06 1076.85 1105.43 1086.93 1084.54 z" fill="rgb(250,246,234)" transform="translate(0,0)"></path>
<path d="M 1047.35 1081.42 C 1054.04 1080.88 1059.92 1081.33 1066.6 1081.67 C 1059.72 1096.27 1024.4 1169.67 1016.96 1176.23 L 1015.27 1174.76 C 1004.43 1161.29 994.087 1148.3 992.298 1130.48 C 988.658 1094.23 1018.29 1083.74 1047.35 1081.42 z" fill="rgb(250,246,234)" transform="translate(0,0)"></path>
<path d="M 1242.01 1244.02 C 1245 1243.77 1248 1243.91 1250.95 1244.44 C 1283.17 1250.47 1290.95 1293 1260.95 1313.13 C 1256.15 1314.99 1248.55 1318.01 1243.53 1316.84 C 1239.55 1311.82 1248.83 1298.13 1248.75 1284.53 C 1248.62 1264.93 1237.41 1260.43 1236.82 1248.17 C 1238.48 1245.06 1238.18 1245.96 1242.01 1244.02 z" fill="rgb(250,246,234)" transform="translate(0,0)"></path>
<path d="M 1604.86 772.297 C 1614.32 794.787 1620.02 822.186 1631.81 843.429 C 1633.74 846.913 1638.98 850.922 1642.8 852.214 C 1666.56 860.253 1695.56 863.004 1719.3 869.763 C 1695.3 878.925 1665.49 884.788 1641.88 895.278 C 1638.69 896.694 1633.85 902.194 1632.73 905.435 C 1624.98 927.924 1617.95 955.349 1612.19 978.217 C 1601.27 956.489 1596.37 923.476 1585.92 900.456 C 1565.82 894.082 1547.86 891.931 1526.99 890.051 C 1518.39 889.276 1504.42 889.147 1496.55 887.003 C 1509.62 884.123 1515.28 884.092 1523.98 873.871 C 1538.79 867.813 1569.18 858.517 1581.18 852.027 C 1593.55 834.81 1599.05 794.608 1604.86 772.297 z" fill="rgb(33,27,26)" transform="translate(0,0)"></path>
<path d="M 1608.79 831.836 C 1609.78 832.908 1613.06 843.572 1615.4 847.592 C 1624.94 863.973 1635.16 867.81 1651.93 872.704 C 1646.78 874.945 1641.66 877.25 1636.57 879.617 C 1619.18 887.858 1616.25 902.392 1610.25 919.276 C 1606.72 915.442 1603.31 899.852 1600.45 895.304 C 1593.45 884.218 1577.83 880.842 1566.2 878.27 C 1592.5 865.986 1598.42 858.851 1608.79 831.836 z" fill="rgb(250,246,234)" transform="translate(0,0)"></path>
<path d="M 1503.33 368.137 C 1514.81 369.393 1523.86 378.811 1517.48 390.257 C 1512.97 398.331 1499.83 409.499 1492.99 416.832 C 1483.73 426.925 1474.76 437.284 1466.11 447.897 C 1452.52 464.764 1441.15 484.781 1429.22 502.783 C 1426.03 507.597 1423.23 507.749 1417.49 509.222 C 1402.33 506.551 1398.07 493.089 1405.48 480.848 C 1420.93 455.332 1478.06 376.076 1503.33 368.137 z" fill="rgb(250,246,234)" transform="translate(0,0)"></path>
<path d="M 1680.43 217.084 C 1688.33 216.367 1692.7 216.961 1697.68 223.965 C 1701.93 229.543 1699.31 239.426 1693.78 243.185 C 1667.28 261.208 1640.89 279.53 1615.84 299.573 C 1610.21 304.078 1605.02 308.356 1598.67 311.866 C 1596.22 312.09 1593.62 312.421 1591.17 312.113 C 1586.78 311.558 1582.56 308.249 1580.35 304.485 C 1578.49 301.31 1578.52 297.637 1579.63 294.212 C 1585.91 274.897 1659.97 227.46 1680.43 217.084 z" fill="rgb(250,246,234)" transform="translate(0,0)"></path>
<path d="M 1546.1 955.049 C 1559.84 955.132 1568.91 965.888 1562.49 979.033 C 1557.03 989.35 1552.01 1000.25 1546.52 1010.51 C 1541.12 1020.62 1535.97 1036.99 1525.05 1041.4 C 1499.96 1041.47 1504.04 1021.43 1513.71 1005.68 C 1522.56 991.28 1530.04 962.42 1546.1 955.049 z" fill="rgb(250,246,234)" transform="translate(0,0)"></path>
<path d="M 1779.21 835.416 C 1790.49 834.474 1808.45 832.384 1810.33 848.437 C 1810.77 851.982 1809.78 855.557 1807.56 858.361 C 1800.41 867.321 1766.34 867.645 1754.72 868.5 C 1744.39 869.234 1716.91 869.819 1723.54 848.285 C 1727.57 835.173 1764.71 836.589 1779.21 835.416 z" fill="rgb(250,246,234)" transform="translate(0,0)"></path>
<path d="M 1510.49 704.162 C 1526.18 704.092 1527.04 705.741 1536.31 718.247 C 1544.18 729.006 1552.69 739.318 1560.74 749.939 C 1568.78 760.543 1566.31 768.908 1555.64 775.766 C 1536.35 779.731 1531.62 763.489 1520.71 749.041 C 1511.3 736.585 1491.93 716.09 1510.49 704.162 z" fill="rgb(250,246,234)" transform="translate(0,0)"></path>
<path d="M 1665.99 941.046 C 1675.45 940.482 1677.85 941.565 1683.7 949.279 C 1691.53 959.608 1699.72 970.223 1707.32 980.665 C 1712.13 987.268 1717.4 993.505 1715.81 1002.02 C 1714.73 1007.8 1710.73 1010.33 1706.21 1013 C 1688.68 1014.49 1684.95 1002.99 1675.15 989.82 C 1664.37 975.342 1644.16 955.292 1665.99 941.046 z" fill="rgb(250,246,234)" transform="translate(0,0)"></path>
<path d="M 1679.84 713.083 C 1697.67 711.567 1701.88 720.586 1696.24 736.896 C 1692.81 746.818 1686.56 756.929 1681.59 766.229 C 1676.95 774.915 1674.09 782.145 1664.84 786.351 C 1621.76 784.998 1664.56 735.065 1673.29 718.035 C 1674.04 716.567 1678.25 714.012 1679.84 713.083 z" fill="rgb(250,246,234)" transform="translate(0,0)"></path>
<path d="M 1456.36 890.927 L 1455.15 890.114 C 1433.06 875.479 1453.08 859.656 1470.87 859.183 C 1490.83 858.652 1521.94 844.118 1523.98 873.871 C 1515.28 884.092 1509.62 884.123 1496.55 887.003 C 1488.81 886.55 1472.48 891.773 1456.36 890.927 z" fill="rgb(250,246,234)" transform="translate(0,0)"></path>
<metadata><recraft-signature>{"signed_by": "recraft", "signature_b64": "x6KXGi0OnvI00UjgpQAGG/qHQvjT1O+nsstpXYyCoJGFAQeaGg8WgrKSgDDEB+0r/a2lwd/rkHrB9OQwXG1nBg==", "signing_algo": "Ed25519", "generation_timestamp": 1783774450, "identifier": "262e437a-4598-4a70-86d8-3aaa33eb55f5"}</recraft-signature></metadata></svg>